# xmcd CD database file
#
# Track frame offsets:
#	150
#	14841
#	29065
#	43904
#	58634
#	73168
#	87319
#	101798
#	109905
#	123334
#	133389
#	145425
#	162786
#	177821
#	192570
#	206136
#
# Disc length: 2916 seconds
#
# Revision: 0
# Processed by: cddbd v1.5.2PL0 Copyright (c) Steve Scherf et al.
# Submitted via: CDex 1.51
#
DISCID=040b6210
DTITLE=Herman Woody - Woodsheddin' With Woody
DYEAR=2003
DGENRE=Jazz
TTITLE0=Wood Choppers Ball
TTITLE1=Blues On Parade
TTITLE2=Blue Flame
TTITLE3=Blues In The Night
TTITLE4=Amen Yeah Man
TTITLE5=Four Or Five Times
TTITLE6=The Golden Wedding
TTITLE7=Apple Honey
TTITLE8=Northwest Passage
TTITLE9=Woodsheddin' With Woody
TTITLE10=Mambo Herd
TTITLE11=I Got It Bad
TTITLE12=I Cover The Waterfront
TTITLE13=Baby I Need You
TTITLE14=Fan It
TTITLE15=Down Under
EXTD=YEAR: 2003
EXTT0=
EXTT1=
EXTT2=
EXTT3=
EXTT4=
EXTT5=
EXTT6=
EXTT7=
EXTT8=
EXTT9=
EXTT10=
EXTT11=
EXTT12=
EXTT13=
EXTT14=
EXTT15=
PLAYORDER=
